Coordinates
version=1
nRows=10
nColumns=40
inDegrees=yes

Units are S.I. units (second, meters, Newtons, ...)
Angles are in degrees.

endheader
time	pelvis_tilt	pelvis_list	pelvis_rotation	pelvis_tx	pelvis_ty	pelvis_tz	hip_flexion_r	hip_adduction_r	hip_rotation_r	knee_angle_r	knee_angle_r_beta	ankle_angle_r	subtalar_angle_r	mtp_angle_r	hip_flexion_l	hip_adduction_l	hip_rotation_l	knee_angle_l	knee_angle_l_beta	ankle_angle_l	subtalar_angle_l	mtp_angle_l	lumbar_extension	lumbar_bending	lumbar_rotation	arm_flex_r	arm_add_r	arm_rot_r	elbow_flex_r	pro_sup_r	wrist_flex_r	wrist_dev_r	arm_flex_l	arm_add_l	arm_rot_l	elbow_flex_l	pro_sup_l	wrist_flex_l	wrist_dev_l
     15.70878571	     -4.10625591	     -4.33989924	      7.09601856	      1.01950498	      0.92351303	      0.45981004	      3.74921250	      1.14374709	    -16.43618812	     14.08403882	     14.08403882	     15.57173731	     -0.34681567	     -6.34352002	     29.87298017	     -7.15115909	     -2.33422646	     20.89351615	     20.89351615	      3.43582832	     -5.64422384	      3.86796824	     -8.85732080	      5.33479707	      4.77059263	     34.40041764	    -17.73237005	     -6.00015407	     72.52968077	     45.02374066	      0.00000000	      0.00000000	     -8.66050493	     -6.18350094	      0.74057249	     26.72616678	     44.93197369	      0.00000000	      0.00000000
     15.72257143	     -3.98869721	     -4.42430394	      6.93738066	      1.02055206	      0.92245833	      0.45758419	      3.24697198	      1.13344499	    -16.20443897	     14.26328869	     14.26328869	     16.04683529	     -0.41116404	     -6.31431291	     29.33166330	     -7.05333048	     -1.83134168	     22.00115538	     22.00115538	      3.56496791	     -6.61495237	      3.53790615	     -8.70304307	      5.27555276	      4.83965120	     33.92356623	    -17.29692032	     -5.78393092	     72.25327636	     45.02541499	      0.00000000	      0.00000000	     -8.34753995	     -6.42835319	      0.67643505	     26.89478273	     44.95266565	      0.00000000	      0.00000000
     15.73635714	     -3.88395084	     -4.46349737	      6.75729246	      1.02162294	      0.92153904	      0.45530419	      2.79219680	      1.05594839	    -15.92747894	     14.50946119	     14.50946119	     16.46408785	     -0.50618339	     -6.22227391	     28.73564520	     -6.91461016	     -1.31805729	     22.85904724	     22.85904724	      3.80902506	     -7.45859748	      3.26898400	     -8.54111153	      5.13313604	      4.89467599	     33.24793491	    -16.76749361	     -5.49215303	     71.89679935	     45.02599047	      0.00000000	      0.00000000	     -7.92220944	     -6.72582048	      0.59834690	     27.10951212	     44.97701190	      0.00000000	      0.00000000
     15.75014286	     -3.83142988	     -4.44879082	      6.59621172	      1.02260592	      0.92075771	      0.45278082	      2.56005335	      0.85964419	    -15.56837120	     15.14335306	     15.14335306	     17.54522609	     -0.62535570	     -4.11891714	     28.13411546	     -6.57186151	     -0.38617291	     23.38989109	     23.38989109	      3.69636038	     -9.12049922	      2.60125308	     -8.32331626	      4.95959579	      4.55764478	     32.98059769	    -16.13268648	     -4.52810931	     70.60414545	     45.05913151	      0.00000000	      0.00000000	     -7.70162072	     -7.00538241	      0.02636957	     27.73885188	     45.12275881	      0.00000000	      0.00000000
     15.76392857	     -3.69059396	     -4.43875902	      6.47020227	      1.02368295	      0.92031155	      0.45024535	      2.10017962	      0.69316532	    -15.36411955	     15.44859776	     15.44859776	     17.76437092	     -0.70264066	     -4.15284111	     27.56373489	     -6.43035401	     -0.10772884	     23.97902031	     23.97902031	      4.22247064	     -9.43314754	      2.32440793	     -8.22452575	      4.77058737	      4.51188662	     32.01031941	    -15.54628693	     -4.23005368	     70.28006273	     45.05572766	      0.00000000	      0.00000000	     -7.07268941	     -7.35998729	     -0.03791327	     27.94282466	     45.14555760	      0.00000000	      0.00000000
     15.77771429	     -3.63960281	     -4.35453818	      6.32498048	      1.02447134	      0.91989905	      0.44748240	      2.03578024	      0.36416904	    -14.94934788	     16.31329878	     16.31329878	     18.12112629	     -1.25399909	     -3.79140424	     27.21236016	     -6.14294749	      0.29746035	     24.60952392	     24.60952392	      4.74201698	    -10.20736894	      2.17442159	     -8.07334409	      4.51582059	      4.59912367	     31.04577992	    -15.38198281	     -3.74537068	     69.50211277	     45.06601634	      0.00000000	      0.00000000	     -6.26691051	     -7.70428695	     -0.21550784	     28.15995160	     45.19821146	      0.00000000	      0.00000000
     15.79150000	     -3.54736438	     -4.24483684	      6.22223120	      1.02517299	      0.91990534	      0.44454386	      1.94030729	     -0.00897444	    -14.61236803	     17.18715197	     17.18715197	     18.35552105	     -1.72290253	     -3.36187352	     26.78915599	     -5.85856360	      0.53358802	     25.03683239	     25.03683239	      5.32117956	    -10.67292990	      1.98916009	     -8.00146729	      4.25651762	      4.50581660	     30.03822707	    -15.05763874	     -3.13264498	     68.70960832	     45.07198599	      0.00000000	      0.00000000	     -5.37326684	     -8.04498497	     -0.36734211	     28.27461172	     45.24834023	      0.00000000	      0.00000000
     15.80528571	     -3.37647151	     -4.14262996	      6.16425771	      1.02578445	      0.92031708	      0.44143795	      1.80474663	     -0.40035195	    -14.39904699	     18.11238169	     18.11238169	     18.36971165	     -2.09277746	     -3.24077258	     26.31763864	     -5.60420348	      0.64196976	     25.40243609	     25.40243609	      5.90394401	    -10.93473443	      1.73670459	     -8.04067691	      4.03472950	      4.34304086	     28.88293789	    -14.66423892	     -2.64777527	     68.02248550	     45.07501581	      0.00000000	      0.00000000	     -4.42990527	     -8.41069173	     -0.45017857	     28.45992579	     45.28213899	      0.00000000	      0.00000000
     15.81907143	     -3.18813717	     -4.19005694	      6.17162764	      1.02627336	      0.92110264	      0.43821921	      1.65553248	     -0.63766547	    -14.31463186	     18.97416824	     18.97416824	     18.15134454	     -2.34908252	     -3.23456962	     25.80585045	     -5.48887351	      0.80214851	     25.58911650	     25.58911650	      6.46698289	    -11.06409109	      1.50058770	     -8.10937803	      4.01632425	      4.04024299	     27.61218505	    -14.11612040	     -2.24202234	     67.46233443	     45.07410681	      0.00000000	      0.00000000	     -3.39613690	     -8.71356192	     -0.48688316	     28.74768792	     45.30671891	      0.00000000	      0.00000000
     15.83285714	     -3.20704992	     -3.86967986	      5.98244659	      1.02625086	      0.92156578	      0.43490594	      2.49573956	     -1.49650771	    -13.82548748	     21.30316428	     21.30316428	     18.12542470	     -3.32128125	     -3.50018940	     25.42240730	     -5.04202644	      0.52682479	     25.68400931	     25.68400931	      6.93799567	    -11.20418383	      1.28116895	     -8.02132903	      3.57559357	      4.24478306	     26.39983487	    -14.23682684	     -1.52364267	     66.13512577	     45.09082002	      0.00000000	      0.00000000	     -2.08708141	     -9.02591363	     -0.52746589	     28.88972517	     45.34056042	      0.00000000	      0.00000000
